<mxfile host="app.diagrams.net" modified="2023-11-01T08:46:30.337Z" agent="Mozilla/5.0 (X11; Linux x86_64) AppleWebKit/537.36 (KHTML, like Gecko) Chrome/118.0.0.0 Safari/537.36" etag="QtFcmq6DcBZS0Yj-mv1a" version="22.0.8" type="device">
  <diagram name="Page-1" id="ixl5n7djDiGue2_9RoKF">
    <mxGraphModel dx="1434" dy="838" grid="1" gridSize="10" guides="1" tooltips="1" connect="1" arrows="1" fold="1" page="1" pageScale="1" pageWidth="1169" pageHeight="827" math="0" shadow="0">
      <root>
        <mxCell id="0" />
        <mxCell id="1" parent="0" />
        <mxCell id="kzsFTsjOnAKE8SWCITAE-1" value="" style="rounded=0;whiteSpace=wrap;html=1;" vertex="1" parent="1">
          <mxGeometry x="20" y="40" width="1120" height="440" as="geometry" />
        </mxCell>
        <mxCell id="kzsFTsjOnAKE8SWCITAE-2" value="&lt;h1&gt;Data Pipeline&lt;/h1&gt;" style="text;html=1;strokeColor=none;fillColor=none;spacing=5;spacingTop=-20;whiteSpace=wrap;overflow=hidden;rounded=0;align=center;" vertex="1" parent="1">
          <mxGeometry x="470" y="50" width="320" height="40" as="geometry" />
        </mxCell>
        <mxCell id="kzsFTsjOnAKE8SWCITAE-9" value="" style="rounded=0;whiteSpace=wrap;html=1;" vertex="1" parent="1">
          <mxGeometry x="180" y="130" width="180" height="260" as="geometry" />
        </mxCell>
        <mxCell id="kzsFTsjOnAKE8SWCITAE-10" value="Docker Container" style="text;html=1;strokeColor=none;fillColor=none;align=center;verticalAlign=middle;whiteSpace=wrap;rounded=0;fontSize=14;fontStyle=1" vertex="1" parent="1">
          <mxGeometry x="206" y="140" width="130" height="30" as="geometry" />
        </mxCell>
        <mxCell id="kzsFTsjOnAKE8SWCITAE-11" value="Python Code" style="rounded=0;whiteSpace=wrap;html=1;" vertex="1" parent="1">
          <mxGeometry x="203.75" y="190" width="131.5" height="50" as="geometry" />
        </mxCell>
        <mxCell id="kzsFTsjOnAKE8SWCITAE-12" value="Python Environment and Dependencies" style="rounded=0;whiteSpace=wrap;html=1;" vertex="1" parent="1">
          <mxGeometry x="203.75" y="254" width="132.25" height="60" as="geometry" />
        </mxCell>
        <mxCell id="kzsFTsjOnAKE8SWCITAE-15" value="Configs" style="rounded=0;whiteSpace=wrap;html=1;" vertex="1" parent="1">
          <mxGeometry x="203.75" y="325" width="132.25" height="50" as="geometry" />
        </mxCell>
        <mxCell id="kzsFTsjOnAKE8SWCITAE-16" value="YouTube API Key" style="text;html=1;strokeColor=none;fillColor=none;align=center;verticalAlign=middle;whiteSpace=wrap;rounded=0;" vertex="1" parent="1">
          <mxGeometry x="55" y="202" width="70" height="32" as="geometry" />
        </mxCell>
        <mxCell id="kzsFTsjOnAKE8SWCITAE-17" value="Service Account Secret Key" style="text;html=1;strokeColor=none;fillColor=none;align=center;verticalAlign=middle;whiteSpace=wrap;rounded=0;" vertex="1" parent="1">
          <mxGeometry x="40" y="279" width="90" height="36" as="geometry" />
        </mxCell>
        <mxCell id="kzsFTsjOnAKE8SWCITAE-19" style="edgeStyle=orthogonalEdgeStyle;rounded=0;orthogonalLoop=1;jettySize=auto;html=1;entryX=0.006;entryY=0.338;entryDx=0;entryDy=0;entryPerimeter=0;" edge="1" parent="1" source="kzsFTsjOnAKE8SWCITAE-16" target="kzsFTsjOnAKE8SWCITAE-9">
          <mxGeometry relative="1" as="geometry" />
        </mxCell>
        <mxCell id="kzsFTsjOnAKE8SWCITAE-21" style="edgeStyle=orthogonalEdgeStyle;rounded=0;orthogonalLoop=1;jettySize=auto;html=1;exitX=1;exitY=0.5;exitDx=0;exitDy=0;entryX=0.011;entryY=0.642;entryDx=0;entryDy=0;entryPerimeter=0;" edge="1" parent="1" source="kzsFTsjOnAKE8SWCITAE-17" target="kzsFTsjOnAKE8SWCITAE-9">
          <mxGeometry relative="1" as="geometry" />
        </mxCell>
        <mxCell id="kzsFTsjOnAKE8SWCITAE-30" style="edgeStyle=orthogonalEdgeStyle;rounded=0;orthogonalLoop=1;jettySize=auto;html=1;exitX=1;exitY=0.5;exitDx=0;exitDy=0;exitPerimeter=0;entryX=0;entryY=0.5;entryDx=0;entryDy=0;" edge="1" parent="1" source="kzsFTsjOnAKE8SWCITAE-22" target="kzsFTsjOnAKE8SWCITAE-25">
          <mxGeometry relative="1" as="geometry" />
        </mxCell>
        <mxCell id="kzsFTsjOnAKE8SWCITAE-22" value="&lt;b&gt;&lt;font style=&quot;font-size: 14px;&quot;&gt;Artifact Repository&lt;br&gt;(GCP)&lt;br&gt;&lt;/font&gt;&lt;/b&gt;" style="shape=cylinder3;whiteSpace=wrap;html=1;boundedLbl=1;backgroundOutline=1;size=15;" vertex="1" parent="1">
          <mxGeometry x="440" y="205" width="100" height="110" as="geometry" />
        </mxCell>
        <mxCell id="kzsFTsjOnAKE8SWCITAE-32" style="edgeStyle=orthogonalEdgeStyle;rounded=0;orthogonalLoop=1;jettySize=auto;html=1;exitX=0.5;exitY=1;exitDx=0;exitDy=0;dashed=1;" edge="1" parent="1" source="kzsFTsjOnAKE8SWCITAE-25" target="kzsFTsjOnAKE8SWCITAE-27">
          <mxGeometry relative="1" as="geometry" />
        </mxCell>
        <mxCell id="kzsFTsjOnAKE8SWCITAE-35" style="edgeStyle=orthogonalEdgeStyle;rounded=0;orthogonalLoop=1;jettySize=auto;html=1;exitX=1;exitY=0.5;exitDx=0;exitDy=0;" edge="1" parent="1" source="kzsFTsjOnAKE8SWCITAE-25" target="kzsFTsjOnAKE8SWCITAE-34">
          <mxGeometry relative="1" as="geometry" />
        </mxCell>
        <mxCell id="kzsFTsjOnAKE8SWCITAE-25" value="&lt;span style=&quot;font-size: 14px;&quot;&gt;&lt;b&gt;GCP&lt;br&gt;&amp;nbsp;Cloud Run&lt;br&gt;(GCP)&lt;br&gt;&lt;/b&gt;&lt;/span&gt;" style="rounded=0;whiteSpace=wrap;html=1;" vertex="1" parent="1">
          <mxGeometry x="615" y="228" width="105" height="64" as="geometry" />
        </mxCell>
        <mxCell id="kzsFTsjOnAKE8SWCITAE-27" value="&lt;span style=&quot;font-size: 14px;&quot;&gt;&lt;b&gt;Alerts&lt;br&gt;(GCP)&lt;br&gt;&lt;/b&gt;&lt;/span&gt;" style="rounded=0;whiteSpace=wrap;html=1;" vertex="1" parent="1">
          <mxGeometry x="615" y="360" width="105" height="60" as="geometry" />
        </mxCell>
        <mxCell id="kzsFTsjOnAKE8SWCITAE-33" style="edgeStyle=orthogonalEdgeStyle;rounded=0;orthogonalLoop=1;jettySize=auto;html=1;exitX=0.5;exitY=1;exitDx=0;exitDy=0;dashed=1;" edge="1" parent="1" source="kzsFTsjOnAKE8SWCITAE-28" target="kzsFTsjOnAKE8SWCITAE-25">
          <mxGeometry relative="1" as="geometry" />
        </mxCell>
        <mxCell id="kzsFTsjOnAKE8SWCITAE-28" value="&lt;span style=&quot;font-size: 14px;&quot;&gt;&lt;b&gt;Scheduler&lt;br&gt;(GCP)&lt;br&gt;&lt;/b&gt;&lt;/span&gt;" style="rounded=0;whiteSpace=wrap;html=1;" vertex="1" parent="1">
          <mxGeometry x="615" y="125" width="105" height="60" as="geometry" />
        </mxCell>
        <mxCell id="kzsFTsjOnAKE8SWCITAE-29" style="edgeStyle=orthogonalEdgeStyle;rounded=0;orthogonalLoop=1;jettySize=auto;html=1;exitX=1;exitY=0.5;exitDx=0;exitDy=0;entryX=0;entryY=0.5;entryDx=0;entryDy=0;entryPerimeter=0;" edge="1" parent="1" source="kzsFTsjOnAKE8SWCITAE-9" target="kzsFTsjOnAKE8SWCITAE-22">
          <mxGeometry relative="1" as="geometry" />
        </mxCell>
        <mxCell id="kzsFTsjOnAKE8SWCITAE-39" style="edgeStyle=orthogonalEdgeStyle;rounded=0;orthogonalLoop=1;jettySize=auto;html=1;exitX=1;exitY=0.5;exitDx=0;exitDy=0;exitPerimeter=0;entryX=0;entryY=0.5;entryDx=0;entryDy=0;" edge="1" parent="1" source="kzsFTsjOnAKE8SWCITAE-34" target="kzsFTsjOnAKE8SWCITAE-38">
          <mxGeometry relative="1" as="geometry" />
        </mxCell>
        <mxCell id="kzsFTsjOnAKE8SWCITAE-40" style="edgeStyle=orthogonalEdgeStyle;rounded=0;orthogonalLoop=1;jettySize=auto;html=1;exitX=1;exitY=0.5;exitDx=0;exitDy=0;exitPerimeter=0;entryX=0;entryY=0.5;entryDx=0;entryDy=0;" edge="1" parent="1" source="kzsFTsjOnAKE8SWCITAE-34" target="kzsFTsjOnAKE8SWCITAE-36">
          <mxGeometry relative="1" as="geometry" />
        </mxCell>
        <mxCell id="kzsFTsjOnAKE8SWCITAE-34" value="&lt;b&gt;&lt;font style=&quot;font-size: 14px;&quot;&gt;BQ Tables&lt;/font&gt;&lt;/b&gt;" style="shape=cylinder3;whiteSpace=wrap;html=1;boundedLbl=1;backgroundOutline=1;size=15;" vertex="1" parent="1">
          <mxGeometry x="780" y="220" width="120" height="80" as="geometry" />
        </mxCell>
        <mxCell id="kzsFTsjOnAKE8SWCITAE-36" value="&lt;b&gt;&lt;font style=&quot;font-size: 14px;&quot;&gt;Looker Dashboard&lt;/font&gt;&lt;/b&gt;" style="shape=document;whiteSpace=wrap;html=1;boundedLbl=1;" vertex="1" parent="1">
          <mxGeometry x="960" y="295" width="120" height="80" as="geometry" />
        </mxCell>
        <mxCell id="kzsFTsjOnAKE8SWCITAE-38" value="&lt;b&gt;&lt;font style=&quot;font-size: 14px;&quot;&gt;Regression Analysis&lt;/font&gt;&lt;/b&gt;" style="rounded=0;whiteSpace=wrap;html=1;" vertex="1" parent="1">
          <mxGeometry x="960" y="145" width="120" height="60" as="geometry" />
        </mxCell>
      </root>
    </mxGraphModel>
  </diagram>
</mxfile>
